<svg xmlns="http://www.w3.org/2000/svg" xmlns:xlink="http://www.w3.org/1999/xlink" width="124.992" height="327.264" viewBox="4010 3067.6 130.2 340.9"><path fill="#FFF" d="M4010 3067.6h130.2v340.9H4010z"/><defs xmlns="http://www.w3.org/2000/svg" id="patterns"><pattern id="gridPattern" x="4000" y="3000" width="10" height="10" patternUnits="userSpaceOnUse"><path id="gridCell" fill="#FFF" stroke="none" fill-opacity=".8" d="M0 0h.5v.5H0z"/></pattern><pattern id="gridPattern2" x="4000.5" y="3000.5" width="10" height="10" patternUnits="userSpaceOnUse"><path id="gridCell2" d="M10 0v10h-20" fill="none" stroke="#FFF" stroke-width=".5" stroke-opacity=".6"/></pattern><marker id="arrowOnStart" orient="auto" refY="0" refX="0" markerUnits="strokeWidth" overflow="visible"><path d="M2 0l4-2v4z" stroke-width="6"/></marker><marker id="arrowOnEnd" orient="auto" refY="0" refX="0" markerUnits="strokeWidth" overflow="visible"><path d="M-2 0l-4-2v4z" stroke-width="6"/></marker><marker id="arrowOnStartChrome" orient="auto" refY="0" refX="0" markerUnits="strokeWidth" overflow="visible"><path d="M2 0l4-2v4z" stroke-width="3" stroke="#FFF"/></marker><marker id="arrowOnEndChrome" orient="auto" refY="0" refX="0" markerUnits="strokeWidth" overflow="visible"><path d="M-2 0l-4-2v4z" stroke-width="3" stroke="#FFF"/></marker><svg id="icon-lock" viewBox="0 0 20 20" height="20" width="20"><path stroke="#F0F" stroke-width="2" d="M5 7c0-8 10-8 10 0H1v12h18V7h-4" cursor="pointer" fill-opacity=".001" fill="#fff"/></svg><mask id="multiLayerMask" maskUnits="userSpaceOnUse" x="4019.6" y="3076.7" width="110.6" height="321.8"><path d="M4020 3398.472v-320.866h110.236v320.866z" fill="#fff"/><g stroke-width="0"><circle cx="4025.905" cy="3207.527" r="5.905"/><circle cx="4031.811" cy="3122.449" r="3.937"/><circle cx="4031.81" cy="3250.83" r="3.937"/><circle cx="4031.81" cy="3294.14" r="3.937"/><circle cx="4031.81" cy="3329.57" r="3.937"/><circle cx="4031.81" cy="3355.17" r="3.937"/><circle cx="4046.378" cy="3111.071" r="6.89"/><circle cx="4071.181" cy="3354.52" r="2.953"/><circle cx="4071.181" cy="3249.82" r="2.953"/><circle cx="4088.898" cy="3211.858" r="2.362"/><circle cx="4025.905" cy="3168.157" r="5.905"/><circle cx="4079.055" cy="3093.35" r="2.559"/><circle cx="4098.74" cy="3093.35" r="2.559"/><circle cx="4118.425" cy="3093.35" r="2.559"/><circle cx="4071" cy="3307.5" r="3.937"/><path d="M4020 3077.606v11.811h11.811v-11.81z" id="gge12168_11"/><circle cx="4046.378" cy="3386.661" r="6.89"/></g></mask><mask id="topBoardSolderMask" maskUnits="userSpaceOnUse" x="4019.6" y="3076.7" width="110.6" height="321.8"><path d="M4020 3398.472v-320.866h110.236v320.866z" fill="#fff"/><g stroke-width="0"><path d="M4019.6 3158.72v-67.73h24.42v67.73zM4019.6 3221.71v-55.92h24.42v55.92zM4019.6 3270.92v-40.17h24.42v40.17zM4019.6 3310.29v-32.3h24.42v32.3zM4019.6 3341.79v-24.43h24.42v24.43zM4019.6 3363.44v-16.55h24.42v16.55z"/><path d="M4019.6 3126.43v-13.4h111.04v13.4z"/><path d="M4115.07 3221.71v-99.23h14.58v99.23z"/><path d="M4102.29 3219.29v-14.58h24.42v14.58zM4102.67 3256.31v-13.59h21.27v13.59zM4102.67 3361.31v-13.59h21.27v13.59zM4057.79 3361.31v-13.59h21.27v13.59zM4057.79 3256.31v-13.59h21.27v13.59zM4060.94 3219.15v-14.58h8.67v14.58zM4060.94 3143.56v-14.58h8.67v14.58zM4084.56 3219.15v-14.58h8.67v14.58z"/><path d="M4102.28 3219.15v-14.58h8.67v14.58zM4102.28 3143.56v-14.58h8.67v14.58zM4089.29 3143.56v-14.58h8.67v14.58zM4040.62 3284.89v-6.73h9.76v6.73zM4040.62 3269.84v-6.73h9.76v6.73zM4101.98 3155.96v-7.1h5.16v7.1zM4090.34 3155.96v-7.1h5.16v7.1z"/><ellipse cx="4025.906" cy="3207.528" rx="6.306" ry="6.306"/><ellipse cx="4031.811" cy="3122.449" rx="8.274" ry="8.274"/><ellipse cx="4031.81" cy="3250.83" rx="8.274" ry="8.274"/><ellipse cx="4031.81" cy="3294.14" rx="8.274" ry="8.274"/><ellipse cx="4031.81" cy="3329.57" rx="8.274" ry="8.274"/><ellipse cx="4031.81" cy="3355.17" rx="8.274" ry="8.274"/><ellipse cx="4046.378" cy="3111.071" rx="7.487" ry="7.487"/><ellipse cx="4071.181" cy="3354.52" rx="6.306" ry="6.306"/><ellipse cx="4071.181" cy="3249.82" rx="6.306" ry="6.306"/><ellipse cx="4088.898" cy="3211.858" rx="7.29" ry="7.29"/><ellipse cx="4025.906" cy="3168.158" rx="6.306" ry="6.306"/><ellipse cx="4079.055" cy="3093.35" rx="4.137" ry="4.137"/><ellipse cx="4098.74" cy="3093.35" rx="4.137" ry="4.137"/><ellipse cx="4118.425" cy="3093.35" rx="4.137" ry="4.137"/></g></mask><mask id="topSignalSolderMask" maskUnits="userSpaceOnUse" x="4019.6" y="3076.7" width="110.6" height="321.8"><path d="M4020 3398.472v-320.866h110.236v320.866z" fill="#fff"/><g stroke-width="0"><path d="M4019.6 3158.72v-67.73h24.42v67.73zM4019.6 3221.71v-55.92h24.42v55.92zM4019.6 3270.92v-40.17h24.42v40.17zM4019.6 3310.29v-32.3h24.42v32.3zM4019.6 3341.79v-24.43h24.42v24.43zM4019.6 3363.44v-16.55h24.42v16.55z"/><path d="M4019.6 3126.43v-13.4h111.04v13.4z"/><path d="M4115.07 3221.71v-99.23h14.58v99.23z"/><path d="M4102.29 3219.29v-14.58h24.42v14.58zM4102.67 3256.31v-13.59h21.27v13.59zM4102.67 3361.31v-13.59h21.27v13.59zM4057.79 3361.31v-13.59h21.27v13.59zM4057.79 3256.31v-13.59h21.27v13.59zM4060.94 3219.15v-14.58h8.67v14.58zM4060.94 3143.56v-14.58h8.67v14.58zM4084.56 3219.15v-14.58h8.67v14.58z"/><path d="M4102.28 3219.15v-14.58h8.67v14.58zM4102.28 3143.56v-14.58h8.67v14.58zM4089.29 3143.56v-14.58h8.67v14.58zM4040.62 3284.89v-6.73h9.76v6.73zM4040.62 3269.84v-6.73h9.76v6.73zM4101.98 3155.96v-7.1h5.16v7.1zM4090.34 3155.96v-7.1h5.16v7.1z"/><ellipse cx="4025.906" cy="3207.528" rx="6.306" ry="6.306"/><ellipse cx="4031.811" cy="3122.449" rx="8.274" ry="8.274"/><ellipse cx="4031.81" cy="3250.83" rx="8.274" ry="8.274"/><ellipse cx="4031.81" cy="3294.14" rx="8.274" ry="8.274"/><ellipse cx="4031.81" cy="3329.57" rx="8.274" ry="8.274"/><ellipse cx="4031.81" cy="3355.17" rx="8.274" ry="8.274"/><ellipse cx="4046.378" cy="3111.071" rx="7.487" ry="7.487"/><ellipse cx="4071.181" cy="3354.52" rx="6.306" ry="6.306"/><ellipse cx="4071.181" cy="3249.82" rx="6.306" ry="6.306"/><ellipse cx="4088.898" cy="3211.858" rx="7.29" ry="7.29"/><ellipse cx="4025.906" cy="3168.158" rx="6.306" ry="6.306"/><ellipse cx="4079.055" cy="3093.35" rx="4.137" ry="4.137"/><ellipse cx="4098.74" cy="3093.35" rx="4.137" ry="4.137"/><ellipse cx="4118.425" cy="3093.35" rx="4.137" ry="4.137"/></g></mask><mask id="bottomBoardSolderMask" maskUnits="userSpaceOnUse" x="4019.6" y="3076.7" width="110.6" height="321.8"><path d="M4020 3398.472v-320.866h110.236v320.866z" fill="#fff"/><g stroke-width="0"><path d="M4019.6 3363.44v-16.55h24.42v16.55zM4019.6 3341.79v-24.43h24.42v24.43zM4019.6 3310.29v-32.3h24.42v32.3zM4019.6 3270.92v-40.17h24.42v40.17zM4019.6 3221.71v-55.92h24.42v55.92zM4019.6 3158.72v-67.73h24.42v67.73zM4084.66 3140.88v-9.76h6.73v9.76zM4069.61 3140.88v-9.76h6.73v9.76zM4102.67 3361.31v-13.59h21.27v13.59zM4102.67 3256.31v-13.59h21.27v13.59zM4057.79 3256.31v-13.59h21.27v13.59zM4057.79 3361.31v-13.59h21.27v13.59zM4101.16 3236.38v-9.76h6.73v9.76zM4086.11 3236.38v-9.76h6.73v9.76z"/><ellipse cx="4025.906" cy="3207.528" rx="6.306" ry="6.306"/><ellipse cx="4031.811" cy="3122.449" rx="8.274" ry="8.274"/><ellipse cx="4031.81" cy="3250.83" rx="8.274" ry="8.274"/><ellipse cx="4031.81" cy="3294.14" rx="8.274" ry="8.274"/><ellipse cx="4031.81" cy="3329.57" rx="8.274" ry="8.274"/><ellipse cx="4031.81" cy="3355.17" rx="8.274" ry="8.274"/><ellipse cx="4046.378" cy="3111.071" rx="7.487" ry="7.487"/><ellipse cx="4071.181" cy="3354.52" rx="6.306" ry="6.306"/><ellipse cx="4071.181" cy="3249.82" rx="6.306" ry="6.306"/><ellipse cx="4088.898" cy="3211.858" rx="7.29" ry="7.29"/><ellipse cx="4025.906" cy="3168.158" rx="6.306" ry="6.306"/><ellipse cx="4079.055" cy="3093.35" rx="4.137" ry="4.137"/><ellipse cx="4098.74" cy="3093.35" rx="4.137" ry="4.137"/><ellipse cx="4118.425" cy="3093.35" rx="4.137" ry="4.137"/></g></mask><mask id="bottomSignalSolderMask" maskUnits="userSpaceOnUse" x="4019.6" y="3076.7" width="110.6" height="321.8"><path d="M4020 3398.472v-320.866h110.236v320.866z" fill="#fff"/><g stroke-width="0"><path d="M4019.6 3363.44v-16.55h24.42v16.55zM4019.6 3341.79v-24.43h24.42v24.43zM4019.6 3310.29v-32.3h24.42v32.3zM4019.6 3270.92v-40.17h24.42v40.17zM4019.6 3221.71v-55.92h24.42v55.92zM4019.6 3158.72v-67.73h24.42v67.73zM4084.66 3140.88v-9.76h6.73v9.76zM4069.61 3140.88v-9.76h6.73v9.76zM4102.67 3361.31v-13.59h21.27v13.59zM4102.67 3256.31v-13.59h21.27v13.59zM4057.79 3256.31v-13.59h21.27v13.59zM4057.79 3361.31v-13.59h21.27v13.59zM4101.16 3236.38v-9.76h6.73v9.76zM4086.11 3236.38v-9.76h6.73v9.76z"/><ellipse cx="4025.906" cy="3207.528" rx="6.306" ry="6.306"/><ellipse cx="4031.811" cy="3122.449" rx="8.274" ry="8.274"/><ellipse cx="4031.81" cy="3250.83" rx="8.274" ry="8.274"/><ellipse cx="4031.81" cy="3294.14" rx="8.274" ry="8.274"/><ellipse cx="4031.81" cy="3329.57" rx="8.274" ry="8.274"/><ellipse cx="4031.81" cy="3355.17" rx="8.274" ry="8.274"/><ellipse cx="4046.378" cy="3111.071" rx="7.487" ry="7.487"/><ellipse cx="4071.181" cy="3354.52" rx="6.306" ry="6.306"/><ellipse cx="4071.181" cy="3249.82" rx="6.306" ry="6.306"/><ellipse cx="4088.898" cy="3211.858" rx="7.29" ry="7.29"/><ellipse cx="4025.906" cy="3168.158" rx="6.306" ry="6.306"/><ellipse cx="4079.055" cy="3093.35" rx="4.137" ry="4.137"/><ellipse cx="4098.74" cy="3093.35" rx="4.137" ry="4.137"/><ellipse cx="4118.425" cy="3093.35" rx="4.137" ry="4.137"/></g></mask></defs><g xmlns="http://www.w3.org/2000/svg" id="g1" mask="url(#multiLayerMask)" class="photoview" transform="matrix(-1 0 0 1 8150.236 0)"><g id="layer_other" class="shapeBox"><path d="M4020 3398.472v-320.866h110.236v320.866z" stroke="none" id="boardOutlineReal" fill="#80785F"/><path d="M4020 3398.472v-320.866h110.236v320.866z" stroke="none" id="bottomBoardSolderReal" mask="url(#bottomBoardSolderMask)" fill="#940300"/><g id="bottomSignalReal" fill="#D2D2D2" stroke="#D2D2D2"><path stroke-width="15.748" stroke-linecap="round" fill="none" id="gge14248_2" d="M4031.81 3355.17h3.86l16.33 16.33h54.5l6.81-6.81v-10.17"/><path stroke-width="19.685" stroke-linecap="round" fill="none" id="gge14266_2" d="M4031.81 3250.83l1.32-1.31h35.29"/><path stroke-width="11.811" stroke-linecap="round" fill="none" id="gge14309_2" d="M4088.9 3211.86l-15.92-15.92V3136"/><path stroke-width="11.811" stroke-linecap="round" fill="none" id="gge14310_2" d="M4072.98 3136v-36.57l6.08-6.08"/><path stroke-width="7.874" stroke-linecap="round" fill="none" id="gge14331_2" d="M4118.43 3093.35l-30.41 30.4V3136"/><path stroke-width="7.874" stroke-linecap="round" fill="none" id="gge14334_2" d="M4031.81 3193.75h16.44L4060 3182v-93.5l6-6h21.89l10.85 10.85"/><path stroke-width="9.842" stroke-linecap="round" fill="none" id="gge16226_2" d="M4113.31 3249.52l-8.79-8.79v-9.23"/><path stroke-width="9.842" stroke-linecap="round" fill="none" id="gge16228_2" d="M4089.48 3231.5v-19.06l-.58-.58"/><path stroke-width="21.654" stroke-linecap="round" fill="none" id="gge14291_2" d="M4113.31 3249.52v62.67l-17.38 17.38h-64.12"/><path stroke-width="19.685" stroke-linecap="round" fill="none" id="gge14308_2" d="M4071.181 3249.82v-20.245l17.717-17.717"/><path stroke-width="19.685" stroke-linecap="round" fill="none" id="gge14264_2" d="M4068.42 3249.52v55.4l2.58 2.58"/><path stroke-width="0" d="M4020 3347.291h23.622v15.748H4020z" id="gge2170_2"/><path stroke-width="0" d="M4020 3317.764h23.622v23.622H4020z" id="gge2171_2"/><path stroke-width="0" d="M4020 3278.394h23.622v31.496H4020z" id="gge2172_2"/><path stroke-width="0" d="M4020 3231.15h23.622v39.37H4020z" id="gge2173_2"/><path stroke-width="0" d="M4020 3166.189h23.622v55.118H4020z" id="gge2174_2"/><path stroke-width="0" d="M4020 3091.386h23.622v66.929H4020z" id="gge2175_2"/><path stroke-width="0" d="M4084.86 3131.323v9.354h6.329v-9.354z" id="gge12620_2"/><path stroke-width="0" d="M4076.14 3131.323v9.354h-6.329v-9.354z" id="gge12625_2"/><path stroke-width="0" d="M4123.543 3360.913v-12.795h-20.472v12.795z" id="gge84_2"/><path stroke-width="0" d="M4123.543 3255.913v-12.795h-20.472v12.795z" id="gge89_2"/><path stroke-width="0" d="M4078.661 3255.913v-12.795h-20.472v12.795z" id="gge94_2"/><path stroke-width="0" d="M4078.661 3360.913v-12.795h-20.472v12.795z" id="gge99_2"/><path stroke-width="0" d="M4101.36 3226.823v9.354h6.329v-9.354z" id="gge14777_2"/><path stroke-width="0" d="M4092.64 3226.823v9.354h-6.329v-9.354z" id="gge14782_2"/><path d="M4084.02 3216.724l10.316-.636.06 4.829-9.842.607z" stroke-width="0" id="gge16229_2"/><path d="M4103.07 3249.952l20.473-6.834-13.8-4.126-8.698 5.222z" stroke-width="0" id="gge16227_2"/><path d="M4043.622 3347.291L4020 3363.039l24.476 12.073 13.363-8.909z" stroke-width="0" id="gge14257_2"/><path d="M4103.07 3360.913h20.473l-2.359 3.777h-15.748z" stroke-width="0" id="gge14258_2"/><path d="M4043.622 3231.15v39.37l24.803-11.161v-19.685z" stroke-width="0" id="gge14267_2"/><path d="M4103.07 3255.913h20.473l-.393 29.528h-19.685z" stroke-width="0" id="gge14294_2"/><path d="M4043.622 3317.764v23.622l29.528-1.969v-19.685z" stroke-width="0" id="gge14295_2"/><path d="M4091.189 3131.323h-6.329l.212-7.573h5.906z" stroke-width="0" id="gge14332_2"/><path d="M4114.496 3093.104l4.176 4.175-1.949 1.95-4.176-4.177z" stroke-width="0" id="gge14333_2"/><path d="M4043.622 3183.907v19.686l4.628-5.906v-7.874z" stroke-width="0" id="gge14339_2"/><ellipse cx="4025.906" cy="3207.528" rx="5.905" ry="5.905" stroke-width="0" id="gge2431_11"/><ellipse cx="4031.811" cy="3122.449" rx="7.874" ry="7.874" stroke-width="0" id="gge2435_11"/><ellipse cx="4031.81" cy="3250.83" rx="7.874" ry="7.874" stroke-width="0" id="gge2439_11"/><ellipse cx="4031.81" cy="3294.14" rx="7.874" ry="7.874" stroke-width="0" id="gge2444_11"/><ellipse cx="4031.81" cy="3329.57" rx="7.874" ry="7.874" stroke-width="0" id="gge2449_11"/><ellipse cx="4031.81" cy="3355.17" rx="7.874" ry="7.874" stroke-width="0" id="gge2454_11"/><ellipse cx="4046.378" cy="3111.071" rx="7.087" ry="7.087" stroke-width="0" id="gge2463_11"/><ellipse cx="4071.181" cy="3354.52" rx="5.905" ry="5.905" stroke-width="0" id="gge11982_11"/><ellipse cx="4071.181" cy="3249.82" rx="5.905" ry="5.905" stroke-width="0" id="gge11995_11"/><ellipse cx="4088.898" cy="3211.858" rx="6.89" ry="6.89" stroke-width="0" id="gge12123_11"/><ellipse cx="4025.906" cy="3168.158" rx="5.905" ry="5.905" stroke-width="0" id="gge12180_11"/><ellipse cx="4079.055" cy="3093.35" rx="3.937" ry="3.937" stroke-width="0" id="gge13996_11"/><ellipse cx="4098.74" cy="3093.35" rx="3.937" ry="3.937" stroke-width="0" id="gge14001_11"/><ellipse cx="4118.425" cy="3093.35" rx="3.937" ry="3.937" stroke-width="0" id="gge14006_11"/><circle cx="4071" cy="3307.5" r="7.874" stroke-width="0" id="gge11962_11"/></g><g id="bottomSignalSolderReal" mask="url(#bottomSignalSolderMask)" fill="#D90305" stroke="#D90305"><path stroke-width="15.748" stroke-linecap="round" fill="none" id="gge14248_2" d="M4031.81 3355.17h3.86l16.33 16.33h54.5l6.81-6.81v-10.17"/><path stroke-width="19.685" stroke-linecap="round" fill="none" id="gge14266_2" d="M4031.81 3250.83l1.32-1.31h35.29"/><path stroke-width="11.811" stroke-linecap="round" fill="none" id="gge14309_2" d="M4088.9 3211.86l-15.92-15.92V3136"/><path stroke-width="11.811" stroke-linecap="round" fill="none" id="gge14310_2" d="M4072.98 3136v-36.57l6.08-6.08"/><path stroke-width="7.874" stroke-linecap="round" fill="none" id="gge14331_2" d="M4118.43 3093.35l-30.41 30.4V3136"/><path stroke-width="7.874" stroke-linecap="round" fill="none" id="gge14334_2" d="M4031.81 3193.75h16.44L4060 3182v-93.5l6-6h21.89l10.85 10.85"/><path stroke-width="9.842" stroke-linecap="round" fill="none" id="gge16226_2" d="M4113.31 3249.52l-8.79-8.79v-9.23"/><path stroke-width="9.842" stroke-linecap="round" fill="none" id="gge16228_2" d="M4089.48 3231.5v-19.06l-.58-.58"/><path stroke-width="21.654" stroke-linecap="round" fill="none" id="gge14291_2" d="M4113.31 3249.52v62.67l-17.38 17.38h-64.12"/><path stroke-width="19.685" stroke-linecap="round" fill="none" id="gge14308_2" d="M4071.181 3249.82v-20.245l17.717-17.717"/><path stroke-width="19.685" stroke-linecap="round" fill="none" id="gge14264_2" d="M4068.42 3249.52v55.4l2.58 2.58"/><path stroke-width="0" d="M4020 3347.291h23.622v15.748H4020z" id="gge2170_2"/><path stroke-width="0" d="M4020 3317.764h23.622v23.622H4020z" id="gge2171_2"/><path stroke-width="0" d="M4020 3278.394h23.622v31.496H4020z" id="gge2172_2"/><path stroke-width="0" d="M4020 3231.15h23.622v39.37H4020z" id="gge2173_2"/><path stroke-width="0" d="M4020 3166.189h23.622v55.118H4020z" id="gge2174_2"/><path stroke-width="0" d="M4020 3091.386h23.622v66.929H4020z" id="gge2175_2"/><path stroke-width="0" d="M4084.86 3131.323v9.354h6.329v-9.354z" id="gge12620_2"/><path stroke-width="0" d="M4076.14 3131.323v9.354h-6.329v-9.354z" id="gge12625_2"/><path stroke-width="0" d="M4123.543 3360.913v-12.795h-20.472v12.795z" id="gge84_2"/><path stroke-width="0" d="M4123.543 3255.913v-12.795h-20.472v12.795z" id="gge89_2"/><path stroke-width="0" d="M4078.661 3255.913v-12.795h-20.472v12.795z" id="gge94_2"/><path stroke-width="0" d="M4078.661 3360.913v-12.795h-20.472v12.795z" id="gge99_2"/><path stroke-width="0" d="M4101.36 3226.823v9.354h6.329v-9.354z" id="gge14777_2"/><path stroke-width="0" d="M4092.64 3226.823v9.354h-6.329v-9.354z" id="gge14782_2"/><path d="M4084.02 3216.724l10.316-.636.06 4.829-9.842.607z" stroke-width="0" id="gge16229_2"/><path d="M4103.07 3249.952l20.473-6.834-13.8-4.126-8.698 5.222z" stroke-width="0" id="gge16227_2"/><path d="M4043.622 3347.291L4020 3363.039l24.476 12.073 13.363-8.909z" stroke-width="0" id="gge14257_2"/><path d="M4103.07 3360.913h20.473l-2.359 3.777h-15.748z" stroke-width="0" id="gge14258_2"/><path d="M4043.622 3231.15v39.37l24.803-11.161v-19.685z" stroke-width="0" id="gge14267_2"/><path d="M4103.07 3255.913h20.473l-.393 29.528h-19.685z" stroke-width="0" id="gge14294_2"/><path d="M4043.622 3317.764v23.622l29.528-1.969v-19.685z" stroke-width="0" id="gge14295_2"/><path d="M4091.189 3131.323h-6.329l.212-7.573h5.906z" stroke-width="0" id="gge14332_2"/><path d="M4114.496 3093.104l4.176 4.175-1.949 1.95-4.176-4.177z" stroke-width="0" id="gge14333_2"/><path d="M4043.622 3183.907v19.686l4.628-5.906v-7.874z" stroke-width="0" id="gge14339_2"/><ellipse cx="4025.906" cy="3207.528" rx="5.905" ry="5.905" stroke-width="0" id="gge2431_11"/><ellipse cx="4031.811" cy="3122.449" rx="7.874" ry="7.874" stroke-width="0" id="gge2435_11"/><ellipse cx="4031.81" cy="3250.83" rx="7.874" ry="7.874" stroke-width="0" id="gge2439_11"/><ellipse cx="4031.81" cy="3294.14" rx="7.874" ry="7.874" stroke-width="0" id="gge2444_11"/><ellipse cx="4031.81" cy="3329.57" rx="7.874" ry="7.874" stroke-width="0" id="gge2449_11"/><ellipse cx="4031.81" cy="3355.17" rx="7.874" ry="7.874" stroke-width="0" id="gge2454_11"/><ellipse cx="4046.378" cy="3111.071" rx="7.087" ry="7.087" stroke-width="0" id="gge2463_11"/><ellipse cx="4071.181" cy="3354.52" rx="5.905" ry="5.905" stroke-width="0" id="gge11982_11"/><ellipse cx="4071.181" cy="3249.82" rx="5.905" ry="5.905" stroke-width="0" id="gge11995_11"/><ellipse cx="4088.898" cy="3211.858" rx="6.89" ry="6.89" stroke-width="0" id="gge12123_11"/><ellipse cx="4025.906" cy="3168.158" rx="5.905" ry="5.905" stroke-width="0" id="gge12180_11"/><ellipse cx="4079.055" cy="3093.35" rx="3.937" ry="3.937" stroke-width="0" id="gge13996_11"/><ellipse cx="4098.74" cy="3093.35" rx="3.937" ry="3.937" stroke-width="0" id="gge14001_11"/><ellipse cx="4118.425" cy="3093.35" rx="3.937" ry="3.937" stroke-width="0" id="gge14006_11"/><circle cx="4071" cy="3307.5" r="7.874" stroke-width="0" id="gge11962_11"/></g><g id="bottomSilkLayer" fill="#FFF" stroke="#FFF"><path d="M4106.054 3138.52h7.516m-7.516 0l7.516 2.864m-7.516 2.863l7.516-2.863m-7.516 2.863h7.516m-5.01 2.72l5.01 2.147m-5.01 2.148l5.01-2.148 1.432-.715.716-.716.358-.716v-.358m-10.022 7.015h7.516m-7.516 0l7.516 5.01m-7.516 0h7.516m-7.516 5.226l7.516-2.863m-7.516 2.863l7.516 2.864m-2.505-4.653v3.579m-3.937 8.447l-.716-.716-.358-1.074v-1.432l.358-1.073.716-.716h.716l.716.358.358.358.358.715.715 2.148.358.716.358.358.716.358h1.074l.716-.716.358-1.074v-1.432l-.358-1.073-.716-.716m-3.58 12.741l-.715-.358-.358-.715v-1.074l.358-.716.358-.358 1.073-.358h1.074l.716.358.358.716v1.074l-.358.716-.716.358m-2.863-1.79l.716-.716 1.073-.358h1.074l.716.358.358.358m-3.937 2.505l2.863-.358h.716l.358.716v.716l-.716.716-1.074.358h-.715l-1.074-.358-.716-.358-.716-.716-.358-.716-.358-1.073v-1.074l.358-1.074.358-.716.716-.715.716-.358 1.074-.358h1.073l1.074.358.716.358.716.715.358.716.358 1.074v1.074l-.358 1.073-.358.716-.358.358m-4.653-.716l2.863-.358h.716l.358.358m-5.727 4.152h5.369l1.074.358.716.716.358 1.073v.716l-.358 1.074-.716.716-1.074.358h-5.369m1.79 2.72h-.358l-.716.358-.358.358-.358.715v1.432l.358.716.358.358.716.358h.716l.716-.358 1.073-.716 3.58-3.579v5.01m-6.443 7.374l-.716-.716-.358-1.074v-1.432l.358-1.073.716-.716h.716l.716.358.358.358.358.716.715 2.147.358.716.358.358.716.358h1.074l.716-.716.358-1.074v-1.432l-.358-1.073-.716-.716m-6.443 7.373h7.516m-7.516 0v3.221l.358 1.074.358.358.716.358h.716l.716-.358.358-.358.358-1.074m0-3.221v3.221l.357 1.074.358.358.716.358h1.074l.716-.358.358-.358.358-1.074v-3.221" fill="none" stroke-width=".8" id="gge12187_4"/><path d="M4120.527 3138.52h3.758m-1.79 0l-.536.537-.18.358v.537l.18.358.537.179h1.79m-3.759 1.718h3.042l.537.179.18.358v.358m-2.506-1.432v1.253m-1.253 1.897h3.042l.537.178.18.358v.358m-2.506-1.431v1.252m0 1.36h3.758m-3.221 0l-.358.358-.18.358v.537l.18.358.358.358.537.179h.358l.536-.18.358-.357.18-.358v-.537l-.18-.358-.358-.358m-1.431 5.298l-.358-.18-.18-.536v-.537l.18-.537.358-.179.358.179.179.358.179.895.178.358.358.178h.18l.357-.178.18-.537v-.537l-.18-.537-.358-.179m-1.61 3.328l.179-.178.179.178-.18.18-.178-.18m1.253 0l.178-.178.18.178-.18.18-.178-.18m-3.58 4.582l5.727-3.221m-5.727 7.623l5.727-3.221m-3.758 6.55h2.863l.537-.18.179-.178.179-.358v-.537l-.179-.358m-3.042 1.61l-.358-.357-.18-.358v-.537l.18-.358.358-.358.537-.179h.358l.536.18.358.357.18.358v.537l-.18.358-.358.358m-3.22 1.18l.178.18-.179.179-.179-.18.18-.178m1.252.179h2.505m-3.758 1.897h3.042l.537.178.18.358v.358m-2.506-1.431v1.252m-1.253 1.36h3.758m-1.79 0l-.536.537-.18.358v.537l.18.358.537.179h1.79m-2.506 1.181h1.79l.536.179.18.358v.537l-.18.358-.537.537m-1.79 0h2.506m-3.758 1.18h3.758m-1.968 0l-.358.359-.18.358v.536l.18.358.358.358.537.18h.358l.536-.18.358-.358.18-.358v-.536l-.18-.358-.358-.358m-.357 3.507l.178-.179.18.18-.18.178-.178-.179m-1.074 3.508l-.358-.358-.18-.358v-.537l.18-.358.358-.358.537-.179h.358l.536.18.358.357.18.358v.537l-.18.358-.358.358m-1.968 2.076l.179-.358.358-.358.537-.18h.358l.536.18.358.358.18.358v.536l-.18.358-.358.358-.536.18h-.358l-.537-.18-.358-.358-.18-.358v-.536m0 2.612h2.506m-1.79 0l-.536.537-.18.358v.537l.18.358.537.179h1.79m-1.79 0l-.537.537-.18.358v.537l.18.357.537.18h1.79m-4.475 4.402l5.727-3.222m-3.758 4.403h1.79l.536.179.18.358v.537l-.18.357-.537.537m-1.79 0h2.506m-2.863 1.36h-.179l-.358.18-.179.178-.179.358v.716l.18.358.178.179.358.179h.358l.358-.18.537-.357 1.79-1.79v2.506m-1.97 3.15l-.357-.18-.18-.537v-.536l.18-.537.358-.18.358.18.179.358.179.894.178.358.358.18h.18l.357-.18.18-.537v-.536l-.18-.537-.358-.18m-3.22 3.15h3.757m-1.968 0l-.358.358-.18.358v.537l.18.358.358.358.537.179h.358l.536-.18.358-.357.18-.358v-.537l-.18-.358-.358-.358m-3.937 6.55l5.727-3.221m-5.01 4.402h3.757m-3.758 0l3.758 1.432m-3.758 1.431l3.758-1.431m-3.758 1.431h3.758m-2.505 1.36l2.505 1.074m-2.505 1.074l2.505-1.074.716-.358.358-.358.179-.357v-.18m-5.01 3.508h3.757m-3.758 0l3.758 2.505m-3.758 0h3.758m-3.758 2.613l3.758-1.431m-3.758 1.431l3.758 1.432m-1.252-2.327v1.79m-1.969 4.223l-.358-.358-.179-.536v-.716l.18-.537.357-.358h.358l.358.179.179.179.179.358.358 1.074.179.357.179.18.358.178h.536l.358-.358.18-.536v-.716l-.18-.537-.358-.358" fill="none" stroke-width=".8" id="gge12188_4"/><path d="M4083.57 3147.52l-.21.41-.41.41-.4.2h-.82l-.41-.2-.41-.41-.21-.41-.2-.62v-1.02l.2-.61.21-.41.41-.41.41-.2h.82l.4.2.41.41.21.41m1.76 3.27h2.25l-1.23-1.64h.61l.41-.2.21-.2.2-.62v-.41l-.2-.61-.41-.41-.62-.2h-.61l-.61.2-.21.2-.2.41" fill="none" stroke-width=".6" id="gge12600_4"/><path d="M4125.04 3289.05v2.04l-1.84.21.2-.21.21-.61v-.62l-.21-.61-.4-.41-.62-.2h-.41l-.61.2-.41.41-.2.61v.62l.2.61.2.21.41.2m3.48-4.21l-4.29-1.64m4.29-1.64l-4.29 1.64m-1.44-2.99v-3.68m5.12-4.21l.41.41.2.61v.82l-.2.61-.41.41h-.41l-.41-.2-.21-.21-.2-.41-.41-1.22-.2-.41-.21-.21-.41-.2h-.61l-.41.41-.2.61v.82l.2.61.41.41m3.68-4.21h-4.29m4.29 0v-1.84l-.2-.62-.21-.2-.41-.21h-.41l-.41.21-.2.2-.2.62m0 1.84v-1.84l-.21-.62-.2-.2-.41-.21h-.62l-.41.21-.2.2-.2.62v1.84" fill="none" stroke-width=".6" id="gge77_4"/><path d="M4116.346 3341.246h-6.54m3.27 3.27v-6.55" fill="none" stroke-width=".8" id="gge104_4"/><path d="M4115.346 3263.246h-6.54m3.27 3.27v-6.55" fill="none" stroke-width=".8" id="gge106_4"/><path d="M4069.576 3344.516v-6.55" fill="none" stroke-width=".8" id="gge108_4"/><path d="M4069.576 3267.016v-6.55" fill="none" stroke-width=".8" id="gge110_4"/><path d="M4100.07 3243.02l-.21.41-.41.41-.4.2h-.82l-.41-.2-.41-.41-.21-.41-.2-.62v-1.02l.2-.61.21-.41.41-.41.41-.2h.82l.4.2.41.41.21.41m3.39 3.27l-2.04-2.86h3.07m-1.03 2.86v-4.29" fill="none" stroke-width=".6" id="gge14757_4"/><path stroke-width=".6" stroke-linecap="round" fill="none" id="gge12602_4" d="M4073.31 3141.812h14.38"/><path stroke-width=".6" stroke-linecap="round" fill="none" id="gge12603_4" d="M4073.31 3130.188h14.38"/><path stroke-width=".6" stroke-linecap="round" fill="none" id="gge12604_4" d="M4084.06 3141.812v-11.624"/><path stroke-width=".6" stroke-linecap="round" fill="none" id="gge12605_4" d="M4073.31 3141.812v-.335"/><path stroke-width=".6" stroke-linecap="round" fill="none" id="gge12606_4" d="M4073.31 3130.188v.335"/><path stroke-width="3.15" stroke-linecap="round" fill="none" id="gge79_4" d="M4084.366 3324.016v-47"/><path stroke-width="3.15" stroke-linecap="round" fill="none" id="gge80_4" d="M4084.366 3277.016h-1l-9.5 9.5"/><path stroke-width="3.15" stroke-linecap="round" fill="none" id="gge81_4" d="M4084.366 3277.016l9.5 9.5"/><path stroke-width="1.181" stroke-linecap="round" fill="none" id="gge82_4" d="M4126.3 3361.07v-118.11h-70.867v118.11h70.866"/><path stroke-width=".6" stroke-linecap="round" fill="none" id="gge14759_4" d="M4089.81 3237.312h14.38"/><path stroke-width=".6" stroke-linecap="round" fill="none" id="gge14760_4" d="M4089.81 3225.688h14.38"/><path stroke-width=".6" stroke-linecap="round" fill="none" id="gge14761_4" d="M4100.56 3237.312v-11.624"/><path stroke-width=".6" stroke-linecap="round" fill="none" id="gge14762_4" d="M4089.81 3237.312v-.335"/><path stroke-width=".6" stroke-linecap="round" fill="none" id="gge14763_4" d="M4089.81 3225.688v.335"/><path d="M4087.39 3142.112v-.835h1.8v.835z" stroke-width="0" id="gge12611_4"/><path d="M4087.39 3129.888v.835h1.8v-.835z" stroke-width="0" id="gge12612_4"/><path d="M4124.366 3329.266v-30.5h-31v30.5z" stroke-width="0" id="gge83_4"/><path d="M4103.89 3237.612v-.835h1.8v.835z" stroke-width="0" id="gge14768_4"/><path d="M4103.89 3225.388v.835h1.8v-.835z" stroke-width="0" id="gge14769_4"/><path d="M4115 3106.52h13.78v30.039h-27.56v-30.039H4115m-7.247 10.592c.338.395.877.43.877.058 0-.143-.146-.333-.325-.422-.251-.125-.325-.268-.325-.632 0-.75.145-.81 1.902-.81 1.272 0 1.63.044 1.794.222.303.33.25.852-.12 1.169-.397.34-.429.734-.06.734.833 0 1.223-1.564.59-2.366l-.313-.397h-1.818c-1.634 0-1.846.028-2.106.283-.16.156-.34.41-.4.567-.162.416-.007 1.228.305 1.594m-.284 3.122c.245.767.564.88 2.466.88h1.704l.38-.414c.53-.577.53-1.381 0-2.027l-.379-.463h-1.668c-1.858 0-2.165.103-2.453.826-.22.553-.225.65-.05 1.198m.328 11.33c.414.404.832.422.832.036 0-.156-.054-.284-.12-.284-.248 0-.53-.459-.53-.863 0-.305.086-.46.316-.575.544-.27.924-.048 1.36.796.649 1.252 1.639 1.585 2.364.795.298-.325.38-.541.38-1.003 0-.461-.082-.678-.38-1.003-.38-.415-.71-.526-.848-.285-.116.205.06.561.324.652.489.17.471 1.066-.026 1.357-.427.249-.911-.071-1.327-.876-.62-1.205-1.61-1.578-2.324-.878-.577.565-.586 1.579-.02 2.131m.636-19.801c.537 0 .973.048.97.106-.001.059-.44.383-.974.72-.785.497-.97.68-.97.957 0 .188.026.342.06.342.033 0 .494-.287 1.024-.637.53-.351 1.056-.638 1.169-.638.113 0 .73.287 1.372.638.642.35 1.204.637 1.25.637.045 0 .064-.143.04-.318-.03-.237-.306-.47-1.07-.904-.938-.534-1.004-.599-.756-.744.15-.088.628-.159 1.062-.159.702 0 .788-.031.788-.284 0-.273-.086-.283-2.47-.283-2.383 0-2.47.01-2.47.284 0 .258.087.283.975.283m-.766 12.402c.443.735 1.841.726 2.376-.016l.257-.356.916.503c1.059.581 1.182.604 1.182.22 0-.21-.264-.426-1.04-.851s-1.04-.642-1.04-.852c0-.258.089-.282 1.05-.282 1.013 0 1.047-.01 1.007-.318-.042-.316-.063-.32-2.48-.358l-2.437-.038v1c0 .68.067 1.11.21 1.348m.05 4.176c.235 0 .26-.095.26-.992v-.992H4109.397l.039.743c.03.574.09.753.267.79.194.04.227-.067.227-.743v-.79h1.808l.039.957c.034.848.068.956.298.956.24 0 .26-.095.26-1.275v-1.275l-2.27-.04c-1.249-.02-2.346-.007-2.438.032-.119.05-.167.438-.167 1.35 0 1.184.02 1.279.26 1.279m.457-9.263c.171-.186.5-.23 1.698-.23 1.312 0 1.516.033 1.745.283.306.334.331.69.076 1.07-.16.239-.374.281-1.593.316-1.652.046-2.037-.094-2.097-.77-.024-.265.044-.53.171-.67m.73 3.454h.927l-.073.598c-.084.685-.355.961-.94.961-.531 0-.84-.382-.84-1.038v-.52h.926m4.134-34.649c.06-.159.21-.378.331-.488.293-.265 2.354-.374 2.958-.157.435.156.75.614.75 1.089 0 .415-.395 1.049-.653 1.049-.332 0-.33-.307.003-.534.348-.237.332-.812-.029-1.088-.36-.274-2.222-.3-2.7-.038a.679.679 0 0 0-.074 1.171c.391.28.431.489.093.489-.492 0-.904-.904-.679-1.493m.011 9.053c.139-.386.623-.76.984-.76.388 0 .89.466 1.152 1.067.276.635.723.885 1.177.66.417-.207.458-.93.065-1.16-.271-.157-.36-.566-.124-.566.294 0 .774.702.774 1.133 0 .585-.506 1.134-1.044 1.134-.446 0-.944-.468-1.32-1.24-.276-.57-.793-.738-1.157-.378-.34.335-.282.933.109 1.12.32.154.398.498.111.498-.508 0-.944-.904-.727-1.508m1.948-15.495h1.95v.992c0 1.19-.23 1.333-.286.177l-.04-.815-1.786-.04c-2.473-.054-2.34-.314.162-.314m-1.828 2.834c.066 0 .14.175.162.39l.041.389 1.658.04 1.657.04v-.43c0-.236.059-.43.13-.43.075 0 .13.45.13 1.064 0 .613-.055 1.062-.13 1.062-.072 0-.13-.191-.13-.425v-.425h-3.38v.425c0 .234-.058.425-.13.425-.075 0-.13-.449-.13-1.063 0-.584.055-1.062.122-1.062m1.828 6.092h1.95v1.063c0 .614-.055 1.063-.13 1.063-.072 0-.13-.38-.13-.857v-.857l-.813.042-.812.042-.04.603c-.022.33-.092.602-.155.602s-.133-.271-.155-.602l-.04-.603h-1.3l-.039.815c-.057 1.194-.286.995-.286-.248v-1.063h1.95m0 2.834c1.628 0 1.95.035 1.95.208 0 .17-.288.216-1.528.248l-1.527.04 1.527.545c1.39.495 1.528.575 1.528.885v.341H4115c-1.646 0-1.95-.033-1.95-.212 0-.176.26-.214 1.528-.223l1.527-.01-.52-.252c-.286-.138-.973-.398-1.528-.577-.886-.287-1.007-.365-1.007-.659v-.334h1.95m0 6.235h1.95v.992c0 .566-.056.991-.13.991-.072 0-.13-.35-.13-.779v-.78H4115v.638c0 .351-.059.638-.13.638-.071 0-.13-.287-.13-.638v-.637h-1.43v.78c0 .428-.058.778-.13.778-.074 0-.13-.425-.13-.991v-.992h1.95m-.465 27.934c.668.332 1.418-.254 1.115-.871-.106-.216-.272-.284-.698-.284-.66 0-.732.06-.732.594 0 .29.089.448.315.561m.33 1.512c.607.047.97-.221.831-.615-.04-.112.044-.206.21-.234.15-.025.287-.11.302-.188.016-.082-.4-.16-.988-.183l-1.016-.042.04.609.041.608.58.045m-.456 1.437c.328.297.652.118.697-.385.022-.253.103-.46.178-.46.084 0 .108.167.06.425-.092.506.23.616.35.12.13-.545-.124-.828-.742-.828-.307 0-.597.043-.645.095-.158.171-.09.86.102 1.033m.559 1.536c.392.025.682-.017.682-.098 0-.077-.248-.16-.551-.185-.403-.031-.563-.11-.595-.291-.036-.207.056-.248.552-.248.326 0 .594-.064.594-.142 0-.078-.325-.141-.723-.141h-.723l.04.531.041.531.682.043m-.032-5.356c.368 0 .455.054.455.283 0 .23-.087.284-.455.284s-.455-.054-.455-.284c0-.23.087-.283.455-.283m-.01 1.558c.383 0 .465.052.465.293 0 .244-.07.285-.421.248-.278-.03-.436-.13-.465-.293-.034-.198.05-.248.421-.248m-.358 1.512c.164-.18.303-.094.303.189 0 .157-.087.283-.195.283-.198 0-.267-.3-.108-.472m3.231-5.334c.254.23.41.07.2-.206-.154-.202-.093-.506.101-.506.052 0 .162.197.245.436.118.34.217.426.45.39.247-.038.3-.133.3-.53 0-.267-.072-.51-.16-.543-.116-.042-.14.064-.082.378.104.567-.142.576-.323.011-.085-.266-.226-.425-.376-.425-.506 0-.738.649-.355.995m.006 1.474c.241.263.977.296 1.2.053.086-.093.156-.304.156-.468 0-.422-.247-.637-.732-.637-.435 0-.828.303-.828.637 0 .106.092.293.204.415m.519.79c.49 0 .577.042.577.283 0 .24-.087.284-.577.284-.318 0-.614.063-.658.141-.05.089.218.142.715.142h.796l-.04-.531-.041-.532-.76-.043c-.507-.028-.73.007-.674.107.046.082.344.149.662.149m-.43 2.382c.244.051.312-.183.095-.33-.264-.177.03-.352.595-.352.317 0 .577-.064.577-.142 0-.078-.337-.141-.752-.141h-.752l.005.458c.003.322.072.473.231.507m-.136 1.274c.086.093.241.17.345.17.152 0 .145-.054-.039-.275-.302-.364-.158-.576.39-.576.355 0 .448.057.448.272 0 .15-.073.3-.163.335-.089.034-.12.111-.07.17.217.256.509-.072.469-.528-.039-.434-.074-.464-.603-.505-.799-.063-1.224.45-.777.937m-.022 1.454a.532.532 0 0 0 .456.274c.269 0 .32-.068.32-.425 0-.298.063-.425.211-.425.167 0 .194.092.131.437-.057.313-.034.42.082.378.266-.095.279-.848.017-1.056-.318-.254-.828-.23-1.113.05-.274.27-.29.388-.104.767m.45-6.61c.437-.12.745.027.692.33-.053.3-.568.407-.828.171-.274-.247-.232-.4.137-.502m-.134 6.039c.17-.155.199-.125.199.203 0 .233-.06.361-.154.327-.243-.088-.264-.333-.045-.53m2.799-10.672c.143.04.26.182.26.313 0 .403.284.578.936.578.807 0 .813-.254.007-.31-.455-.033-.627-.106-.658-.284-.033-.194.078-.248.584-.283.992-.07.73-.323-.382-.369-.687-.028-1.007.01-1.007.12 0 .088.117.194.26.235m.737 5.396c.986-.041.997-.046 1.046-.444.067-.55-.164-.802-.733-.802-.524 0-.79.2-.79.595 0 .16-.097.255-.26.255-.148 0-.26.095-.26.219 0 .181.169.211.997.177m.307-3.117l.719.041-.004-.537c-.004-.502-.03-.538-.394-.538-.33 0-.397.061-.431.39-.024.223-.121.39-.228.39-.226 0-.244-.305-.032-.536.194-.212.054-.377-.222-.262-.146.06-.197.226-.168.549.04.454.052.462.76.503m-.463 1.567c.219.046.231.022.086-.17-.26-.34-.061-.518.575-.518.318 0 .578-.063.578-.142 0-.078-.343-.141-.769-.141h-.769l.022.459c.015.333.09.473.277.512m-.061 2.004c.143 0 .26.064.26.142 0 .078-.088.142-.195.142-.316 0-.223.282.097.297.285.014.284.017-.023.11-.173.053-.34.181-.373.285-.038.126.022.163.186.112.133-.041.491-.117.795-.169.613-.104.657-.163.325-.438-.216-.18-.216-.188 0-.193.125-.002.228-.064.228-.136 0-.152-.226-.234-1.008-.366-.364-.062-.552-.041-.552.06 0 .085.117.154.26.154m-.104 2.38c.086.094.427.17.759.17h.602l.02-.557c.016-.447-.032-.576-.245-.65-.319-.11-.642.15-.642.517 0 .146-.088.266-.195.266-.22 0-.266-.361-.063-.497a.176.176 0 0 0 .053-.228c-.122-.216-.445.148-.445.501 0 .17.07.385.156.479m.008 1.61c.235.159.384-.027.208-.26-.217-.285.053-.467.7-.47.268 0 .488-.065.488-.143 0-.079-.34-.142-.76-.142h-.76l-.012.457c-.007.252.054.503.136.558m-.008 1.365c.086.094.29.17.455.17.245 0 .299-.075.299-.425 0-.283.065-.425.195-.425.233 0 .256.302.04.536-.216.237-.024.393.216.176.469-.424.104-1.137-.581-1.137-.66 0-1.032.66-.624 1.105m.29-6.717c.327-.137.785.008.83.263.035.204-.053.248-.487.248-.389 0-.53-.057-.53-.217 0-.119.084-.252.186-.294m0 6.037c.12 0 .205.121.205.295 0 .346-.304.297-.367-.059-.025-.14.041-.236.162-.236m.67-9.068c.12 0 .187.096.162.236-.063.356-.367.404-.367.06 0-.175.084-.296.204-.296m-.042 5.986c.243.089.27.484.04.58-.15.063-.202-.009-.202-.277 0-.226.06-.34.162-.303" id="gge12186_4" stroke="none"/></g></g></g></svg>