<svg xmlns="http://www.w3.org/2000/svg" xmlns:xlink="http://www.w3.org/1999/xlink" width="124.992" height="328.128" viewBox="4010 3066.7 130.2 341.8"><path fill="#FFF" d="M4010 3066.7h130.2v341.8H4010z"/><defs xmlns="http://www.w3.org/2000/svg" id="patterns"><pattern id="gridPattern" x="4000" y="3000" width="10" height="10" patternUnits="userSpaceOnUse"><path id="gridCell" fill="#FFF" stroke="none" fill-opacity=".8" d="M0 0h.5v.5H0z"/></pattern><pattern id="gridPattern2" x="4000.5" y="3000.5" width="10" height="10" patternUnits="userSpaceOnUse"><path id="gridCell2" d="M10 0v10h-20" fill="none" stroke="#FFF" stroke-width=".5" stroke-opacity=".6"/></pattern><marker id="arrowOnStart" orient="auto" refY="0" refX="0" markerUnits="strokeWidth" overflow="visible"><path d="M2 0l4-2v4z" stroke-width="6"/></marker><marker id="arrowOnEnd" orient="auto" refY="0" refX="0" markerUnits="strokeWidth" overflow="visible"><path d="M-2 0l-4-2v4z" stroke-width="6"/></marker><marker id="arrowOnStartChrome" orient="auto" refY="0" refX="0" markerUnits="strokeWidth" overflow="visible"><path d="M2 0l4-2v4z" stroke-width="3" stroke="#FFF"/></marker><marker id="arrowOnEndChrome" orient="auto" refY="0" refX="0" markerUnits="strokeWidth" overflow="visible"><path d="M-2 0l-4-2v4z" stroke-width="3" stroke="#FFF"/></marker><svg id="icon-lock" viewBox="0 0 20 20" height="20" width="20"><path stroke="#F0F" stroke-width="2" d="M5 7c0-8 10-8 10 0H1v12h18V7h-4" cursor="pointer" fill-opacity=".001" fill="#fff"/></svg><mask id="multiLayerMask" maskUnits="userSpaceOnUse" x="4019.6" y="3076.7" width="110.6" height="321.8"><path d="M4020 3398.472v-320.866h110.236v320.866z" fill="#fff"/><g stroke-width="0"><circle cx="4025.905" cy="3207.527" r="5.905"/><circle cx="4031.811" cy="3122.449" r="3.937"/><circle cx="4031.81" cy="3250.83" r="3.937"/><circle cx="4031.81" cy="3294.14" r="3.937"/><circle cx="4031.81" cy="3329.57" r="3.937"/><circle cx="4031.81" cy="3355.17" r="3.937"/><circle cx="4046.378" cy="3111.071" r="6.89"/><circle cx="4071.181" cy="3354.52" r="2.953"/><circle cx="4071.181" cy="3249.82" r="2.953"/><circle cx="4088.898" cy="3211.858" r="2.362"/><circle cx="4025.905" cy="3168.157" r="5.905"/><circle cx="4079.055" cy="3093.35" r="2.559"/><circle cx="4098.74" cy="3093.35" r="2.559"/><circle cx="4118.425" cy="3093.35" r="2.559"/><circle cx="4071" cy="3307.5" r="3.937"/><path d="M4020 3077.606v11.811h11.811v-11.81z" id="gge12168_11"/><circle cx="4046.378" cy="3386.661" r="6.89"/></g></mask><mask id="topBoardSolderMask" maskUnits="userSpaceOnUse" x="4019.6" y="3076.7" width="110.6" height="321.8"><path d="M4020 3398.472v-320.866h110.236v320.866z" fill="#fff"/><g stroke-width="0"><path d="M4019.6 3158.72v-67.73h24.42v67.73zM4019.6 3221.71v-55.92h24.42v55.92zM4019.6 3270.92v-40.17h24.42v40.17zM4019.6 3310.29v-32.3h24.42v32.3zM4019.6 3341.79v-24.43h24.42v24.43zM4019.6 3363.44v-16.55h24.42v16.55z"/><path d="M4019.6 3126.43v-13.4h111.04v13.4z"/><path d="M4115.07 3221.71v-99.23h14.58v99.23z"/><path d="M4102.29 3219.29v-14.58h24.42v14.58zM4102.67 3256.31v-13.59h21.27v13.59zM4102.67 3361.31v-13.59h21.27v13.59zM4057.79 3361.31v-13.59h21.27v13.59zM4057.79 3256.31v-13.59h21.27v13.59zM4060.94 3219.15v-14.58h8.67v14.58zM4060.94 3143.56v-14.58h8.67v14.58zM4084.56 3219.15v-14.58h8.67v14.58z"/><path d="M4102.28 3219.15v-14.58h8.67v14.58zM4102.28 3143.56v-14.58h8.67v14.58zM4089.29 3143.56v-14.58h8.67v14.58zM4040.62 3284.89v-6.73h9.76v6.73zM4040.62 3269.84v-6.73h9.76v6.73zM4101.98 3155.96v-7.1h5.16v7.1zM4090.34 3155.96v-7.1h5.16v7.1z"/><ellipse cx="4025.906" cy="3207.528" rx="6.306" ry="6.306"/><ellipse cx="4031.811" cy="3122.449" rx="8.274" ry="8.274"/><ellipse cx="4031.81" cy="3250.83" rx="8.274" ry="8.274"/><ellipse cx="4031.81" cy="3294.14" rx="8.274" ry="8.274"/><ellipse cx="4031.81" cy="3329.57" rx="8.274" ry="8.274"/><ellipse cx="4031.81" cy="3355.17" rx="8.274" ry="8.274"/><ellipse cx="4046.378" cy="3111.071" rx="7.487" ry="7.487"/><ellipse cx="4071.181" cy="3354.52" rx="6.306" ry="6.306"/><ellipse cx="4071.181" cy="3249.82" rx="6.306" ry="6.306"/><ellipse cx="4088.898" cy="3211.858" rx="7.29" ry="7.29"/><ellipse cx="4025.906" cy="3168.158" rx="6.306" ry="6.306"/><ellipse cx="4079.055" cy="3093.35" rx="4.137" ry="4.137"/><ellipse cx="4098.74" cy="3093.35" rx="4.137" ry="4.137"/><ellipse cx="4118.425" cy="3093.35" rx="4.137" ry="4.137"/></g></mask><mask id="topSignalSolderMask" maskUnits="userSpaceOnUse" x="4019.6" y="3076.7" width="110.6" height="321.8"><path d="M4020 3398.472v-320.866h110.236v320.866z" fill="#fff"/><g stroke-width="0"><path d="M4019.6 3158.72v-67.73h24.42v67.73zM4019.6 3221.71v-55.92h24.42v55.92zM4019.6 3270.92v-40.17h24.42v40.17zM4019.6 3310.29v-32.3h24.42v32.3zM4019.6 3341.79v-24.43h24.42v24.43zM4019.6 3363.44v-16.55h24.42v16.55z"/><path d="M4019.6 3126.43v-13.4h111.04v13.4z"/><path d="M4115.07 3221.71v-99.23h14.58v99.23z"/><path d="M4102.29 3219.29v-14.58h24.42v14.58zM4102.67 3256.31v-13.59h21.27v13.59zM4102.67 3361.31v-13.59h21.27v13.59zM4057.79 3361.31v-13.59h21.27v13.59zM4057.79 3256.31v-13.59h21.27v13.59zM4060.94 3219.15v-14.58h8.67v14.58zM4060.94 3143.56v-14.58h8.67v14.58zM4084.56 3219.15v-14.58h8.67v14.58z"/><path d="M4102.28 3219.15v-14.58h8.67v14.58zM4102.28 3143.56v-14.58h8.67v14.58zM4089.29 3143.56v-14.58h8.67v14.58zM4040.62 3284.89v-6.73h9.76v6.73zM4040.62 3269.84v-6.73h9.76v6.73zM4101.98 3155.96v-7.1h5.16v7.1zM4090.34 3155.96v-7.1h5.16v7.1z"/><ellipse cx="4025.906" cy="3207.528" rx="6.306" ry="6.306"/><ellipse cx="4031.811" cy="3122.449" rx="8.274" ry="8.274"/><ellipse cx="4031.81" cy="3250.83" rx="8.274" ry="8.274"/><ellipse cx="4031.81" cy="3294.14" rx="8.274" ry="8.274"/><ellipse cx="4031.81" cy="3329.57" rx="8.274" ry="8.274"/><ellipse cx="4031.81" cy="3355.17" rx="8.274" ry="8.274"/><ellipse cx="4046.378" cy="3111.071" rx="7.487" ry="7.487"/><ellipse cx="4071.181" cy="3354.52" rx="6.306" ry="6.306"/><ellipse cx="4071.181" cy="3249.82" rx="6.306" ry="6.306"/><ellipse cx="4088.898" cy="3211.858" rx="7.29" ry="7.29"/><ellipse cx="4025.906" cy="3168.158" rx="6.306" ry="6.306"/><ellipse cx="4079.055" cy="3093.35" rx="4.137" ry="4.137"/><ellipse cx="4098.74" cy="3093.35" rx="4.137" ry="4.137"/><ellipse cx="4118.425" cy="3093.35" rx="4.137" ry="4.137"/></g></mask><mask id="bottomBoardSolderMask" maskUnits="userSpaceOnUse" x="4019.6" y="3076.7" width="110.6" height="321.8"><path d="M4020 3398.472v-320.866h110.236v320.866z" fill="#fff"/><g stroke-width="0"><path d="M4019.6 3363.44v-16.55h24.42v16.55zM4019.6 3341.79v-24.43h24.42v24.43zM4019.6 3310.29v-32.3h24.42v32.3zM4019.6 3270.92v-40.17h24.42v40.17zM4019.6 3221.71v-55.92h24.42v55.92zM4019.6 3158.72v-67.73h24.42v67.73zM4084.66 3140.88v-9.76h6.73v9.76zM4069.61 3140.88v-9.76h6.73v9.76zM4102.67 3361.31v-13.59h21.27v13.59zM4102.67 3256.31v-13.59h21.27v13.59zM4057.79 3256.31v-13.59h21.27v13.59zM4057.79 3361.31v-13.59h21.27v13.59zM4101.16 3236.38v-9.76h6.73v9.76zM4086.11 3236.38v-9.76h6.73v9.76z"/><ellipse cx="4025.906" cy="3207.528" rx="6.306" ry="6.306"/><ellipse cx="4031.811" cy="3122.449" rx="8.274" ry="8.274"/><ellipse cx="4031.81" cy="3250.83" rx="8.274" ry="8.274"/><ellipse cx="4031.81" cy="3294.14" rx="8.274" ry="8.274"/><ellipse cx="4031.81" cy="3329.57" rx="8.274" ry="8.274"/><ellipse cx="4031.81" cy="3355.17" rx="8.274" ry="8.274"/><ellipse cx="4046.378" cy="3111.071" rx="7.487" ry="7.487"/><ellipse cx="4071.181" cy="3354.52" rx="6.306" ry="6.306"/><ellipse cx="4071.181" cy="3249.82" rx="6.306" ry="6.306"/><ellipse cx="4088.898" cy="3211.858" rx="7.29" ry="7.29"/><ellipse cx="4025.906" cy="3168.158" rx="6.306" ry="6.306"/><ellipse cx="4079.055" cy="3093.35" rx="4.137" ry="4.137"/><ellipse cx="4098.74" cy="3093.35" rx="4.137" ry="4.137"/><ellipse cx="4118.425" cy="3093.35" rx="4.137" ry="4.137"/></g></mask><mask id="bottomSignalSolderMask" maskUnits="userSpaceOnUse" x="4019.6" y="3076.7" width="110.6" height="321.8"><path d="M4020 3398.472v-320.866h110.236v320.866z" fill="#fff"/><g stroke-width="0"><path d="M4019.6 3363.44v-16.55h24.42v16.55zM4019.6 3341.79v-24.43h24.42v24.43zM4019.6 3310.29v-32.3h24.42v32.3zM4019.6 3270.92v-40.17h24.42v40.17zM4019.6 3221.71v-55.92h24.42v55.92zM4019.6 3158.72v-67.73h24.42v67.73zM4084.66 3140.88v-9.76h6.73v9.76zM4069.61 3140.88v-9.76h6.73v9.76zM4102.67 3361.31v-13.59h21.27v13.59zM4102.67 3256.31v-13.59h21.27v13.59zM4057.79 3256.31v-13.59h21.27v13.59zM4057.79 3361.31v-13.59h21.27v13.59zM4101.16 3236.38v-9.76h6.73v9.76zM4086.11 3236.38v-9.76h6.73v9.76z"/><ellipse cx="4025.906" cy="3207.528" rx="6.306" ry="6.306"/><ellipse cx="4031.811" cy="3122.449" rx="8.274" ry="8.274"/><ellipse cx="4031.81" cy="3250.83" rx="8.274" ry="8.274"/><ellipse cx="4031.81" cy="3294.14" rx="8.274" ry="8.274"/><ellipse cx="4031.81" cy="3329.57" rx="8.274" ry="8.274"/><ellipse cx="4031.81" cy="3355.17" rx="8.274" ry="8.274"/><ellipse cx="4046.378" cy="3111.071" rx="7.487" ry="7.487"/><ellipse cx="4071.181" cy="3354.52" rx="6.306" ry="6.306"/><ellipse cx="4071.181" cy="3249.82" rx="6.306" ry="6.306"/><ellipse cx="4088.898" cy="3211.858" rx="7.29" ry="7.29"/><ellipse cx="4025.906" cy="3168.158" rx="6.306" ry="6.306"/><ellipse cx="4079.055" cy="3093.35" rx="4.137" ry="4.137"/><ellipse cx="4098.74" cy="3093.35" rx="4.137" ry="4.137"/><ellipse cx="4118.425" cy="3093.35" rx="4.137" ry="4.137"/></g></mask></defs><g xmlns="http://www.w3.org/2000/svg" id="g1" mask="url(#multiLayerMask)" class="photoview"><g id="layer_other" class="shapeBox"><path d="M4020 3398.472v-320.866h110.236v320.866z" stroke="none" id="boardOutlineReal" fill="#80785F"/><path d="M4020 3398.472v-320.866h110.236v320.866z" stroke="none" id="topBoardSolderReal" mask="url(#topBoardSolderMask)" fill="#940300"/><g id="topSignalReal" fill="#D2D2D2" stroke="#D2D2D2"><path stroke-width="19.685" stroke-linecap="round" fill="none" id="gge14269_1" d="M4068.42 3249.52h-35.3l-1.31 1.31"/><path stroke-width="19.685" stroke-linecap="round" fill="none" id="gge14296_1" d="M4031.81 3193.75l18.11 18.11h15.36"/><path stroke-width="5.905" stroke-linecap="round" fill="none" id="gge14311_1" d="M4093.62 3136.27l-.7.7v15.44"/><path stroke-width="5.905" stroke-linecap="round" fill="none" id="gge14313_1" d="M4106.61 3136.27l-2.05 2.05v14.09"/><path stroke-width="9.842" stroke-linecap="round" fill="none" id="gge14340_1" d="M4118.43 3093.35l-.005 26.382"/><path stroke-width="15.748" stroke-linecap="round" fill="none" id="gge14298_1" d="M4113.31 3249.52V3231H4076l-10.72-10.72v-8.42"/><path stroke-width="19.685" stroke-linecap="round" fill="none" id="gge14289_1" d="M4071 3307.5l-2.58 2.58v44.44"/><path stroke-width="19.685" stroke-linecap="round" fill="none" id="gge14271_1" d="M4031.81 3294.14v-8.64h66.69l14.81 14.81v54.21"/><path stroke-width="0" d="M4020 3091.386h23.622v66.929H4020z" id="gge2120_1"/><path stroke-width="0" d="M4020 3166.189h23.622v55.118H4020z" id="gge2121_1"/><path stroke-width="0" d="M4020 3231.15h23.622v39.37H4020z" id="gge2122_1"/><path stroke-width="0" d="M4020 3278.394h23.622v31.496H4020z" id="gge2123_1"/><path stroke-width="0" d="M4020 3317.764h23.622v23.622H4020z" id="gge2124_1"/><path stroke-width="0" d="M4020 3347.291h23.622v15.748H4020z" id="gge2125_1"/><path stroke-width="0" d="M4020 3113.433h110.236v12.598H4020z" id="gge12142_1"/><path stroke-width="0" d="M4115.473 3122.882h13.78v98.425h-13.78z" id="gge12155_1"/><path stroke-width="0" d="M4102.689 3205.11h23.622v13.78h-23.622z" id="gge14321_1"/><path stroke-width="0" d="M4123.543 3243.118v12.795h-20.472v-12.795z" id="gge18_1"/><path stroke-width="0" d="M4123.543 3348.118v12.795h-20.472v-12.795z" id="gge23_1"/><path stroke-width="0" d="M4078.662 3348.118v12.795h-20.473v-12.795z" id="gge28_1"/><path stroke-width="0" d="M4078.662 3243.118v12.795h-20.473v-12.795z" id="gge33_1"/><path stroke-width="0" d="M4061.338 3218.748v-13.78h7.874v13.78z" id="gge1898_1"/><path stroke-width="0" d="M4061.338 3143.157v-13.78h7.874v13.78z" id="gge1903_1"/><path stroke-width="0" d="M4084.96 3218.748v-13.78h7.875v13.78z" id="gge1908_1"/><path stroke-width="0" d="M4102.677 3218.748v-13.78h7.874v13.78z" id="gge1913_1"/><path stroke-width="0" d="M4102.677 3143.157v-13.78h7.874v13.78z" id="gge1918_1"/><path stroke-width="0" d="M4089.685 3143.157v-13.78h7.874v13.78z" id="gge1923_1"/><path stroke-width="0" d="M4040.823 3278.36h9.354v6.329h-9.354z" id="gge12688_1"/><path stroke-width="0" d="M4040.823 3269.64h9.354v-6.329h-9.354z" id="gge12693_1"/><path stroke-width="0" d="M4102.185 3155.758v-6.696h4.754v6.696z" id="gge17881_1"/><path stroke-width="0" d="M4095.295 3155.758v-6.696h-4.754v6.696z" id="gge17886_1"/><path d="M4103.465 3348.118h19.685l-5.906-11.81h-7.874z" stroke-width="0" id="gge16238_1"/><path d="M4043.622 3278.394v16.949l11.811-5.906v-7.874z" stroke-width="0" id="gge16237_1"/><path d="M4103.465 3243.118h19.685l-5.906-11.81h-7.874z" stroke-width="0" id="gge14306_1"/><path d="M4069.212 3218.748h-7.874v1.528h7.875z" stroke-width="0" id="gge14307_1"/><path d="M4042.961 3218.818l.661-37.865v35.882l6.299-18.897-6.299 23.369v-4.472l-.66 1.983z" stroke-width="0" id="gge14297_1"/><path d="M4097.56 3143.157h-7.875l.28 8.859h5.906z" stroke-width="0" id="gge14312_1"/><ellipse cx="4025.906" cy="3207.528" rx="5.905" ry="5.905" stroke-width="0" id="gge2431_11"/><ellipse cx="4031.811" cy="3122.449" rx="7.874" ry="7.874" stroke-width="0" id="gge2435_11"/><ellipse cx="4031.81" cy="3250.83" rx="7.874" ry="7.874" stroke-width="0" id="gge2439_11"/><ellipse cx="4031.81" cy="3294.14" rx="7.874" ry="7.874" stroke-width="0" id="gge2444_11"/><ellipse cx="4031.81" cy="3329.57" rx="7.874" ry="7.874" stroke-width="0" id="gge2449_11"/><ellipse cx="4031.81" cy="3355.17" rx="7.874" ry="7.874" stroke-width="0" id="gge2454_11"/><ellipse cx="4046.378" cy="3111.071" rx="7.087" ry="7.087" stroke-width="0" id="gge2463_11"/><ellipse cx="4071.181" cy="3354.52" rx="5.905" ry="5.905" stroke-width="0" id="gge11982_11"/><ellipse cx="4071.181" cy="3249.82" rx="5.905" ry="5.905" stroke-width="0" id="gge11995_11"/><ellipse cx="4088.898" cy="3211.858" rx="6.89" ry="6.89" stroke-width="0" id="gge12123_11"/><ellipse cx="4025.906" cy="3168.158" rx="5.905" ry="5.905" stroke-width="0" id="gge12180_11"/><ellipse cx="4079.055" cy="3093.35" rx="3.937" ry="3.937" stroke-width="0" id="gge13996_11"/><ellipse cx="4098.74" cy="3093.35" rx="3.937" ry="3.937" stroke-width="0" id="gge14001_11"/><ellipse cx="4118.425" cy="3093.35" rx="3.937" ry="3.937" stroke-width="0" id="gge14006_11"/><circle cx="4071" cy="3307.5" r="7.874" stroke-width="0" id="gge11962_11"/></g><g id="topSignalSolderReal" mask="url(#topSignalSolderMask)" fill="#D90305" stroke="#D90305"><path stroke-width="19.685" stroke-linecap="round" fill="none" id="gge14269_1" d="M4068.42 3249.52h-35.3l-1.31 1.31"/><path stroke-width="19.685" stroke-linecap="round" fill="none" id="gge14296_1" d="M4031.81 3193.75l18.11 18.11h15.36"/><path stroke-width="5.905" stroke-linecap="round" fill="none" id="gge14311_1" d="M4093.62 3136.27l-.7.7v15.44"/><path stroke-width="5.905" stroke-linecap="round" fill="none" id="gge14313_1" d="M4106.61 3136.27l-2.05 2.05v14.09"/><path stroke-width="9.842" stroke-linecap="round" fill="none" id="gge14340_1" d="M4118.43 3093.35l-.005 26.382"/><path stroke-width="15.748" stroke-linecap="round" fill="none" id="gge14298_1" d="M4113.31 3249.52V3231H4076l-10.72-10.72v-8.42"/><path stroke-width="19.685" stroke-linecap="round" fill="none" id="gge14289_1" d="M4071 3307.5l-2.58 2.58v44.44"/><path stroke-width="19.685" stroke-linecap="round" fill="none" id="gge14271_1" d="M4031.81 3294.14v-8.64h66.69l14.81 14.81v54.21"/><path stroke-width="0" d="M4020 3091.386h23.622v66.929H4020z" id="gge2120_1"/><path stroke-width="0" d="M4020 3166.189h23.622v55.118H4020z" id="gge2121_1"/><path stroke-width="0" d="M4020 3231.15h23.622v39.37H4020z" id="gge2122_1"/><path stroke-width="0" d="M4020 3278.394h23.622v31.496H4020z" id="gge2123_1"/><path stroke-width="0" d="M4020 3317.764h23.622v23.622H4020z" id="gge2124_1"/><path stroke-width="0" d="M4020 3347.291h23.622v15.748H4020z" id="gge2125_1"/><path stroke-width="0" d="M4020 3113.433h110.236v12.598H4020z" id="gge12142_1"/><path stroke-width="0" d="M4115.473 3122.882h13.78v98.425h-13.78z" id="gge12155_1"/><path stroke-width="0" d="M4102.689 3205.11h23.622v13.78h-23.622z" id="gge14321_1"/><path stroke-width="0" d="M4123.543 3243.118v12.795h-20.472v-12.795z" id="gge18_1"/><path stroke-width="0" d="M4123.543 3348.118v12.795h-20.472v-12.795z" id="gge23_1"/><path stroke-width="0" d="M4078.662 3348.118v12.795h-20.473v-12.795z" id="gge28_1"/><path stroke-width="0" d="M4078.662 3243.118v12.795h-20.473v-12.795z" id="gge33_1"/><path stroke-width="0" d="M4061.338 3218.748v-13.78h7.874v13.78z" id="gge1898_1"/><path stroke-width="0" d="M4061.338 3143.157v-13.78h7.874v13.78z" id="gge1903_1"/><path stroke-width="0" d="M4084.96 3218.748v-13.78h7.875v13.78z" id="gge1908_1"/><path stroke-width="0" d="M4102.677 3218.748v-13.78h7.874v13.78z" id="gge1913_1"/><path stroke-width="0" d="M4102.677 3143.157v-13.78h7.874v13.78z" id="gge1918_1"/><path stroke-width="0" d="M4089.685 3143.157v-13.78h7.874v13.78z" id="gge1923_1"/><path stroke-width="0" d="M4040.823 3278.36h9.354v6.329h-9.354z" id="gge12688_1"/><path stroke-width="0" d="M4040.823 3269.64h9.354v-6.329h-9.354z" id="gge12693_1"/><path stroke-width="0" d="M4102.185 3155.758v-6.696h4.754v6.696z" id="gge17881_1"/><path stroke-width="0" d="M4095.295 3155.758v-6.696h-4.754v6.696z" id="gge17886_1"/><path d="M4103.465 3348.118h19.685l-5.906-11.81h-7.874z" stroke-width="0" id="gge16238_1"/><path d="M4043.622 3278.394v16.949l11.811-5.906v-7.874z" stroke-width="0" id="gge16237_1"/><path d="M4103.465 3243.118h19.685l-5.906-11.81h-7.874z" stroke-width="0" id="gge14306_1"/><path d="M4069.212 3218.748h-7.874v1.528h7.875z" stroke-width="0" id="gge14307_1"/><path d="M4042.961 3218.818l.661-37.865v35.882l6.299-18.897-6.299 23.369v-4.472l-.66 1.983z" stroke-width="0" id="gge14297_1"/><path d="M4097.56 3143.157h-7.875l.28 8.859h5.906z" stroke-width="0" id="gge14312_1"/><ellipse cx="4025.906" cy="3207.528" rx="5.905" ry="5.905" stroke-width="0" id="gge2431_11"/><ellipse cx="4031.811" cy="3122.449" rx="7.874" ry="7.874" stroke-width="0" id="gge2435_11"/><ellipse cx="4031.81" cy="3250.83" rx="7.874" ry="7.874" stroke-width="0" id="gge2439_11"/><ellipse cx="4031.81" cy="3294.14" rx="7.874" ry="7.874" stroke-width="0" id="gge2444_11"/><ellipse cx="4031.81" cy="3329.57" rx="7.874" ry="7.874" stroke-width="0" id="gge2449_11"/><ellipse cx="4031.81" cy="3355.17" rx="7.874" ry="7.874" stroke-width="0" id="gge2454_11"/><ellipse cx="4046.378" cy="3111.071" rx="7.087" ry="7.087" stroke-width="0" id="gge2463_11"/><ellipse cx="4071.181" cy="3354.52" rx="5.905" ry="5.905" stroke-width="0" id="gge11982_11"/><ellipse cx="4071.181" cy="3249.82" rx="5.905" ry="5.905" stroke-width="0" id="gge11995_11"/><ellipse cx="4088.898" cy="3211.858" rx="6.89" ry="6.89" stroke-width="0" id="gge12123_11"/><ellipse cx="4025.906" cy="3168.158" rx="5.905" ry="5.905" stroke-width="0" id="gge12180_11"/><ellipse cx="4079.055" cy="3093.35" rx="3.937" ry="3.937" stroke-width="0" id="gge13996_11"/><ellipse cx="4098.74" cy="3093.35" rx="3.937" ry="3.937" stroke-width="0" id="gge14001_11"/><ellipse cx="4118.425" cy="3093.35" rx="3.937" ry="3.937" stroke-width="0" id="gge14006_11"/><circle cx="4071" cy="3307.5" r="7.874" stroke-width="0" id="gge11962_11"/></g><g id="topSilkLayer" fill="#FFF" stroke="#FFF"><path stroke-width="1" stroke-linecap="round" fill="none" id="gge13984_3" d="M4129.094 3076.694v35.433"/><path stroke-width="1" stroke-linecap="round" fill="none" id="gge13985_3" d="M4068.07 3076.812v35.433"/><path stroke-width="1" stroke-linecap="round" fill="none" id="gge13986_3" d="M4068.07 3076.694h61.024"/><path stroke-width="1" stroke-linecap="round" fill="none" id="gge13987_3" d="M4067.952 3083.898h61.024"/><path stroke-width="1" stroke-linecap="round" fill="none" id="gge13988_3" d="M4068.07 3079.056h61.024"/><path stroke-width="1" stroke-linecap="round" fill="none" id="gge13989_3" d="M4068.07 3112.245h61.024"/><path stroke-width="3.15" stroke-linecap="round" fill="none" id="gge13_3" d="M4084.366 3280.016v47"/><path stroke-width="3.15" stroke-linecap="round" fill="none" id="gge14_3" d="M4084.366 3327.016h-1l-9.5-9.5"/><path stroke-width="3.15" stroke-linecap="round" fill="none" id="gge15_3" d="M4084.366 3327.016l9.5-9.5"/><path stroke-width="1.181" stroke-linecap="round" fill="none" id="gge16_3" d="M4126.3 3242.96v118.11h-70.867v-118.11h70.866"/><path stroke-width="1" stroke-linecap="round" fill="none" id="gge1897_3" d="M4062.913 3223.276l-3.543-3.544v-90.946h53.15v94.1l.39.39h-49.997"/><path stroke-width=".6" stroke-linecap="round" fill="none" id="gge12670_3" d="M4051.312 3266.81v14.38"/><path stroke-width=".6" stroke-linecap="round" fill="none" id="gge12671_3" d="M4039.688 3266.81v14.38"/><path stroke-width=".6" stroke-linecap="round" fill="none" id="gge12672_3" d="M4051.312 3277.56h-11.624"/><path stroke-width=".6" stroke-linecap="round" fill="none" id="gge12673_3" d="M4051.312 3266.81h-.335"/><path stroke-width=".6" stroke-linecap="round" fill="none" id="gge12674_3" d="M4039.688 3266.81h.335"/><path stroke-width=".6" stroke-linecap="round" fill="none" id="gge17871_3" d="M4102.485 3156.658h5.354v-8.496h-5.354"/><path stroke-width=".6" stroke-linecap="round" fill="none" id="gge17872_3" d="M4094.995 3156.658h-5.354v-8.496h5.354"/><path d="M4125.54 3302.41v2.25l-1.64-1.23v.62l-.2.4-.2.21-.62.2h-.41l-.61-.2-.41-.41-.2-.61v-.62l.2-.61.2-.21.41-.2m3.48 4.21l-4.29 1.64m4.29 1.64l-4.29-1.64m4.29 3.4v2.25l-1.64-1.23v.61l-.2.41-.2.21-.62.2h-.41l-.61-.2-.41-.41-.2-.62v-.61l.2-.61.2-.21.41-.2" fill="none" stroke-width=".6" id="gge11_3"/><path d="M4116.346 3262.786h-6.54m3.27-3.27v6.55" fill="none" stroke-width=".8" id="gge38_3"/><path d="M4115.346 3340.786h-6.54m3.27-3.27v6.55" fill="none" stroke-width=".8" id="gge40_3"/><path d="M4069.576 3259.516v6.55" fill="none" stroke-width=".8" id="gge42_3"/><path d="M4069.576 3337.016v6.55" fill="none" stroke-width=".8" id="gge44_3"/><path d="M4068.775 3177.81h3.07l.61-.2.41-.41.2-.62v-.41l-.2-.61-.41-.41-.61-.2h-3.07m.82-1.35l-.21-.41-.61-.62h4.29" fill="none" stroke-width=".6" id="gge1895_3"/><path d="M4057.02 3277.07l.41-.21.41-.41.2-.4v-.82l-.2-.41-.41-.41-.41-.21-.62-.2h-1.02l-.61.2-.41.21-.41.41-.2.41v.82l.2.4.41.41.41.21m3.27 3.8v-2.04l-1.84-.21.2.21.21.61v.61l-.21.62-.4.41-.62.2h-.41l-.61-.2-.41-.41-.2-.62v-.61l.2-.61.2-.21.41-.2" fill="none" stroke-width=".6" id="gge12668_3"/><path d="M4124.366 3274.766v30.5h-31v-30.5z" stroke-width="0" id="gge17_3"/><path d="M4051.612 3280.89h-.835v1.8h.835z" stroke-width="0" id="gge12679_3"/><path d="M4039.388 3280.89h.835v1.8h-.835z" stroke-width="0" id="gge12680_3"/></g></g></g></svg>